<?xml version="1.0" encoding="utf-8"?>
<!-- Generator: Adobe Illustrator 26.0.3, SVG Export Plug-In . SVG Version: 6.00 Build 0)  -->
<svg version="1.0" id="katman_1" xmlns="http://www.w3.org/2000/svg" xmlns:xlink="http://www.w3.org/1999/xlink" x="0px" y="0px"
	 viewBox="0 0 600 450" style="enable-background:new 0 0 600 450;" xml:space="preserve">
<style type="text/css">
	.st0{fill:#96BCB5;}
</style>
<path class="st0" d="M420.3,223.2c27.4,0,49.5-22.2,49.5-49.5s-22.2-49.5-49.5-49.5s-49.5,22.2-49.5,49.5
	C370.8,201,392.9,223.2,420.3,223.2z M420.3,133.8c22,0,39.9,17.9,39.9,39.9s-17.9,39.9-39.9,39.9s-39.9-17.9-39.9-39.9
	C380.4,151.7,398.3,133.8,420.3,133.8z"/>
<path class="st0" d="M506.6,310.5c-9.1,9.5-29.2,13.8-47,4.6c-21.2-11-49.2-0.7-50.4-0.2l-0.4,0.2c-14.8,6-31.4,6-46.2-0.1
	c-29.3-12-48.5-0.1-49.2,0.4c-0.7,0.5-18.1,10.8-44.2-0.4c-24.8-10.5-43.1-4.4-50-1.2c-15.3-10.1-27.3-16.5-28.5-17.1
	c-2.4-1.3-5.3-0.4-6.6,2c-1.3,2.4-0.4,5.3,2,6.6c0.6,0.3,62,33,84.7,67.7c0.9,1.4,2.4,2.2,4,2.2c0.9,0,1.9-0.3,2.7-0.8
	c2.2-1.5,2.9-4.5,1.4-6.7c0,0,0,0,0,0c-11.6-17.7-31.9-34.5-50.1-47.3c7.5-2.1,20.2-3.5,36.4,3.4c31,13.2,52.3,0.2,53.2-0.4
	c0.9-0.6,16-9.6,40.4,0.4c17.3,7.2,36.7,7.2,53.9-0.1c2.2-0.8,25.8-8.8,42.4-0.2c7.8,4.1,16.5,6.2,25.4,6.3c13.7,0,26-5.3,33.1-12.7
	c1.8-1.9,1.8-5-0.2-6.9C511.4,308.4,508.3,308.5,506.6,310.5L506.6,310.5z"/>
<path class="st0" d="M505.8,344.9c-14.8,6.1-31.4,6-46.2-0.1c-29.3-12-48.5-0.1-49.2,0.4s-18.1,10.8-44.2-0.3
	c-31-13.3-52.1-0.2-52.9,0.4c-2.2,1.5-2.7,4.6-1.2,6.7c1.4,2,4.2,2.6,6.3,1.4c0.7-0.4,17.9-10.8,43.9,0.4c8.7,3.8,18,5.8,27.5,5.8
	c15.5,0,25.1-5.9,25.7-6.3c0.6-0.4,16-9.6,40.4,0.4c17.3,7.3,36.8,7.2,54.1-0.1c2.5-0.9,3.8-3.7,2.8-6.2c-0.9-2.5-3.7-3.8-6.2-2.8
	C506.4,344.5,506,344.7,505.8,344.9z"/>
<path class="st0" d="M206,234.4c1.9,0.4,3.9-0.4,5-2l8-11.7l1.1,13.1c0.2,2.1,1.7,3.9,3.8,4.3l47.4,10.4c0.3,0.1,0.7,0.1,1,0.1
	c1.5,0,2.8-0.6,3.8-1.8l15.2-18.9c0.9-1.1,1.2-2.6,1-4c0.1-0.4,0.1-0.8,0-1.3c-0.1-2-3.5-50.1-28.1-66.8c-2-1.8-5.1-1.6-6.8,0.4
	c-1.8,2-1.6,5.1,0.4,6.8c0.3,0.3,0.7,0.5,1.1,0.7c15.8,10.8,21.4,39.9,23.1,52.9l-57-12.3c2.9-24.6-0.8-52.7-3.1-66.7
	c7,3.1,13.7,7,19.8,11.7c1.9,1.8,5,1.8,6.8-0.2c1.8-1.9,1.8-5-0.2-6.8c-0.1-0.1-0.3-0.2-0.4-0.3c-1.3-1.1-31.5-26.4-74.4-22.2
	c-32.5,3.2-62.9,22.3-90.5,56.8c-0.8,1-1.2,2.4-1,3.7c-0.1,0.4-0.1,0.8,0,1.2l2.7,24.4c0.2,2.1,1.8,3.8,3.8,4.2l51.3,10.2
	c2,0.4,4-0.5,5.1-2.2l8.7-14.3l1.2,15.8c0.2,2.1,1.7,3.9,3.8,4.4l19.6,4.2l-19.8,91.4c-0.6,2.6,1.1,5.2,3.7,5.7
	c0.3,0.1,0.7,0.1,1,0.1c2.3,0,4.2-1.6,4.7-3.8l19.8-91.4L206,234.4z M270.5,238.4l-41.1-8.9l-1.2-14.3l52,11.2L270.5,238.4z
	 M215.6,202.5L161.9,191c4.2-22.2,30.6-56.4,34-60.8c5.3,0.8,10.4,2,15.5,3.6C213.1,143.3,218.5,175.6,215.6,202.5z M174.3,129.6
	c3.4-0.3,6.8-0.4,10.2-0.4c-8.8,11.6-27.9,39.1-32,59.7l-56.9-12.3C120.1,148.2,146.5,132.4,174.3,129.6z M138.5,210.3L94,201.4
	l-1.8-15.6l54.1,11.6L138.5,210.3z M163.1,201.2l50.1,10.8l-8.4,12.3l-40.6-8.8L163.1,201.2z"/>
<path class="st0" d="M153.2,284.4c-1.5-0.6-37.3-13.6-61.5-7c-2.6,0.6-4.2,3.3-3.5,5.9c0.6,2.6,3.3,4.2,5.9,3.5c0.1,0,0.1,0,0.2,0
	c21.3-5.7,55.4,6.7,55.7,6.8c0.5,0.2,1.1,0.3,1.7,0.3c2.7,0,4.9-2.1,4.9-4.7c0-2.1-1.2-3.9-3.2-4.6L153.2,284.4z"/>
<path class="st0" d="M420.3,112c2.7,0,4.8-2.2,4.8-4.8V80.5c0-2.7-2.2-4.8-4.8-4.8s-4.8,2.2-4.8,4.8v26.7
	C415.4,109.8,417.6,112,420.3,112z"/>
<path class="st0" d="M415.4,240.2v26.7c0,2.7,2.2,4.8,4.8,4.8s4.8-2.2,4.8-4.8v-26.7c0-2.7-2.2-4.8-4.8-4.8S415.4,237.6,415.4,240.2
	z"/>
<path class="st0" d="M513.5,168.9h-26.7c-2.7,0-4.8,2.2-4.8,4.8s2.2,4.8,4.8,4.8h26.7c2.7,0,4.8-2.2,4.8-4.8
	S516.2,168.9,513.5,168.9z"/>
<path class="st0" d="M327.1,178.5h26.7c2.7,0,4.8-2.2,4.8-4.8s-2.2-4.8-4.8-4.8h-26.7c-2.7,0-4.8,2.2-4.8,4.8
	S324.4,178.5,327.1,178.5z"/>
<path class="st0" d="M463.9,217.3c-1.9,1.9-1.9,4.9,0,6.8c0,0,0,0,0,0l18.9,18.9c1.9,1.9,4.9,1.9,6.8,0c1.9-1.9,1.9-4.9,0-6.8
	l-18.9-18.9C468.9,215.5,465.8,215.4,463.9,217.3C464,217.3,463.9,217.3,463.9,217.3z"/>
<path class="st0" d="M369.8,130c1.9,1.9,4.9,1.9,6.8,0c0,0,0,0,0,0c1.9-1.9,1.9-4.9,0-6.8l-18.9-18.9c-2-1.7-5.1-1.5-6.8,0.6
	c-1.5,1.8-1.5,4.4,0,6.2L369.8,130z"/>
<path class="st0" d="M369.8,217.3L351,236.2c-1.8,2-1.7,5,0.3,6.8c1.8,1.7,4.7,1.7,6.5,0l18.9-18.9c1.8-2,1.7-5-0.3-6.8
	C374.5,215.7,371.7,215.7,369.8,217.3L369.8,217.3z"/>
<path class="st0" d="M467.3,131.5c1.3,0,2.6-0.5,3.5-1.4l18.8-18.9c1.9-1.9,1.9-4.9,0-6.8c-1.9-1.9-4.9-1.9-6.8,0l-18.9,18.9
	c-1.9,1.9-1.9,5,0,6.8C464.9,130.9,466.1,131.5,467.3,131.5z"/>
</svg>
